<svg width="270" height="48" viewBox="0 0 270 48" fill="" xmlns="http://www.w3.org/2000/svg">
<path d="M16.8068 33.7124H43.1703V28.8963H22.9857V18.9431H53.7157V48H14.9943C6.67327 48 0 41.5786 0 33.6321V14.4482C0 6.50167 6.67327 0 14.9943 0H54.1277V13.2441H16.8068V33.7124Z" fill="white"/>
<path d="M97.1373 0H72.7359C64.6296 0 58.1274 6.50064 58.1274 14.6084V33.3901C58.1274 38.6587 60.8736 43.2506 65.0212 45.8181L71.0192 42.6803C71.0642 42.6608 71.1122 42.6368 71.1602 42.6113C71.819 42.2647 72.4793 41.918 73.1395 41.5714L73.4292 41.4198C78.1066 38.9723 82.8005 36.5534 87.4884 34.1239C90.6457 32.4897 92.2213 29.8816 92.2723 26.3432C92.2993 24.547 92.3023 22.7492 92.3098 20.9515C92.3113 20.7114 92.2843 20.4728 92.2708 20.2312H88.8089V28.0779C87.2123 28.0779 85.6951 28.0809 84.178 28.0779C79.7917 28.0644 76.8971 30.9981 76.9781 35.3694C76.9886 35.9576 76.9796 36.5473 76.9796 37.1866C72.5678 35.2013 67.9444 28.1829 68.5282 23.1139C69.2064 23.1139 69.8982 23.1214 70.5915 23.1124C72.7014 23.0854 74.5096 22.3861 76.0222 20.8555C80.2899 16.5412 84.6162 12.287 88.8659 7.95623C90.0139 6.78726 91.3254 6.10448 92.9116 5.92141C94.4212 5.74583 95.8708 5.93041 97.3549 6.95833C96.9257 7.31697 96.5866 7.60659 96.2384 7.8872C93.8675 9.80799 93.5703 13.6315 96.2384 16.1241C97.1913 17.0139 98.0317 18.0733 98.7309 19.1763C100.063 21.2741 101.09 23.5491 101.169 26.0716C101.271 29.2889 101.196 32.5122 101.192 35.7325C101.192 35.9486 101.16 36.1632 101.138 36.4453C99.2652 36.4453 97.4464 36.4573 95.6292 36.4348C95.23 36.4303 95.0184 36.5443 94.8143 36.903C93.5343 39.1569 92.2153 41.3883 90.9188 43.6317C90.185 44.9012 89.4647 46.1798 88.6844 47.5513L88.4082 48H97.1373C105.245 48 111.827 41.4979 111.827 33.3901V14.6084C111.827 6.50064 105.245 0 97.1373 0ZM78.7878 13.8101C78.6528 10.7159 79.2185 7.90821 80.413 5.22812C81.5835 6.43011 82.7209 7.59909 83.8209 8.73055C82.2617 10.3047 80.5811 12.0004 78.7878 13.8101Z" fill="white"/>
<path d="M80.1274 21.9972C82.1594 19.9535 84.1492 17.9501 86.0872 16C86.0872 17.3372 86.1973 18.7744 86.0532 20.1858C85.9334 21.3568 85.0219 21.9843 83.8529 21.994C82.5981 22.0053 81.3434 21.9972 80.1274 21.9972Z" fill="white"/>
<path d="M147.276 23.3579C147.276 18.3813 143.304 14.3679 138.36 14.2876H130.498V15.893V30.7425V32.3478H138.36C143.304 32.2676 147.276 28.2542 147.276 23.3579ZM161.785 24C161.785 37.0033 151.329 47.6789 138.279 48H115.827V43.7458V4.25418V0H138.279C151.329 0.401337 161.785 10.9967 161.785 24Z" fill="white"/>
</svg>
