<svg width="24" height="24" viewBox="0 0 24 24" fill="none" xmlns="http://www.w3.org/2000/svg">
<path d="M4.77515 21.5104C4.42372 21.405 4.07418 21.2985 3.7787 21.061C3.21514 20.609 2.90502 20.0248 2.90427 19.2918C2.90051 15.6212 2.90164 11.9507 2.90314 8.28008C2.90352 7.12172 3.79672 6.14509 4.93847 6.07789C5.44833 6.04811 5.9612 6.07293 6.49847 6.07293C6.49847 6.14852 6.49847 6.22259 6.49847 6.29666C6.49847 8.98297 6.49584 11.6693 6.4996 14.3552C6.50185 16.0065 7.558 17.3729 9.13377 17.7543C9.41611 17.8227 9.71422 17.8482 10.0052 17.8494C12.3533 17.8566 14.7014 17.8536 17.0494 17.8536C17.123 17.8536 17.1966 17.8536 17.3111 17.8536C17.289 18.4958 17.3404 19.1345 17.2293 19.7423C17.0592 20.6728 16.4442 21.2405 15.5367 21.4692C15.4962 21.4795 15.4571 21.4967 15.4173 21.5108C11.8701 21.5104 8.32279 21.5104 4.77515 21.5104Z" fill="white"/>
<path d="M20.4913 9.31056C20.4913 10.9805 20.4939 12.6509 20.4902 14.3209C20.4875 15.3765 19.9052 16.2195 18.9643 16.5211C18.7593 16.5868 18.5375 16.6273 18.3231 16.6277C15.5004 16.6345 12.6778 16.6345 9.85512 16.6311C8.68183 16.6296 7.70002 15.6247 7.69889 14.4281C7.69664 11.0179 7.69664 7.60814 7.69889 4.19795C7.69965 3.00446 8.68558 2.00339 9.8615 2.00225C12.6841 1.99919 15.5068 1.99919 18.3295 2.00263C19.4483 2.00377 20.3967 2.91397 20.4782 4.05286C20.4868 4.17313 20.4906 4.29378 20.4906 4.41442C20.4917 6.0466 20.4917 7.67877 20.4913 9.31056Z" fill="white"/>
</svg>
