<svg width="32" height="32" viewBox="0 0 32 32" fill="none" xmlns="http://www.w3.org/2000/svg">
<rect width="32" height="32" rx="8" fill="#FFB422"/>
<g clipPath="url(#clip0_402_2742)">
<path fillRule="evenodd" clipRule="evenodd" d="M24 16C24 20.4183 20.4183 24 16 24C11.5817 24 8 20.4183 8 16C8 11.5817 11.5817 8 16 8C20.4183 8 24 11.5817 24 16ZM16.2866 13.9059C15.5085 14.2295 13.9533 14.8994 11.6212 15.9155C11.2425 16.0661 11.0441 16.2134 11.026 16.3575C10.9955 16.6009 11.3004 16.6968 11.7156 16.8273C11.772 16.8451 11.8306 16.8635 11.8905 16.883C12.299 17.0158 12.8485 17.1711 13.1341 17.1773C13.3932 17.1829 13.6824 17.0761 14.0017 16.8568C16.1807 15.3859 17.3055 14.6425 17.3761 14.6264C17.4259 14.6151 17.495 14.6009 17.5418 14.6425C17.5885 14.6841 17.5839 14.7628 17.579 14.7839C17.5488 14.9127 16.352 16.0253 15.7327 16.6011C15.5396 16.7806 15.4026 16.9079 15.3746 16.937C15.3119 17.0022 15.248 17.0638 15.1866 17.123C14.8071 17.4888 14.5225 17.7631 15.2023 18.2111C15.529 18.4264 15.7904 18.6044 16.0512 18.782C16.336 18.976 16.6201 19.1694 16.9877 19.4104C17.0813 19.4718 17.1707 19.5355 17.2578 19.5976C17.5893 19.8339 17.8871 20.0462 18.255 20.0123C18.4687 19.9927 18.6896 19.7917 18.8017 19.1922C19.0667 17.7754 19.5877 14.7056 19.7081 13.4406C19.7186 13.3297 19.7053 13.1879 19.6947 13.1256C19.684 13.0634 19.6618 12.9747 19.5808 12.909C19.485 12.8312 19.337 12.8148 19.2708 12.816C18.9699 12.8213 18.5083 12.9818 16.2866 13.9059Z" fill="black"/>
</g>
<defs>
<clipPath id="clip0_402_2742">
<rect width="16" height="16" fill="white" transform="translate(8 8)"/>
</clipPath>
</defs>
</svg>
